<?xml version="1.0" encoding="utf-8"?>
<!-- Generator: Adobe Illustrator 24.2.3, SVG Export Plug-In . SVG Version: 6.00 Build 0)  -->
<svg version="1.1" id="Слой_1" xmlns="http://www.w3.org/2000/svg" xmlns:xlink="http://www.w3.org/1999/xlink" x="0px" y="0px"
	 viewBox="0 0 100 100" style="enable-background:new 0 0 100 100;" xml:space="preserve">
<style type="text/css">
	.st0{fill:#5973B5;}
	.st1{opacity:0.6;fill:#5973B5;enable-background:new    ;}
</style>
<g id="blue">
	<g id="Layer_8_copy">
		<path class="st0" d="M71.3,27.3v8.3c0,0.6-0.3,1.1-0.8,1.4L50.3,48.6c-1.1,0.6-1.1,2.2,0,2.8l20.2,11.7c0.5,0.3,0.8,0.8,0.8,1.4
			v8.3c0,1.2-1.3,2-2.4,1.4L29.5,51.4c-1.1-0.6-1.1-2.2,0-2.8l39.4-22.7C70,25.3,71.3,26,71.3,27.3z"/>
		<path class="st1" d="M31.5,52.4c-1.1-0.6-1.1-2.2,0-2.8l39.4-22.7c0.1-0.1,0.2-0.1,0.3-0.1c-0.3-0.9-1.4-1.4-2.3-0.9L29.5,48.6
			c-1.1,0.6-1.1,2.2,0,2.8l39.4,22.7c0.2,0.1,0.4,0.2,0.6,0.2L31.5,52.4z"/>
		<path class="st0" d="M70.5,63.1l-2.4-1.4c0,0,0,0.1,0,0.1l0.4,0.2c0.5,0.3,0.8,0.8,0.8,1.4v8.3c0,1-0.9,1.7-1.8,1.6l1.4,0.8
			c1.1,0.6,2.4-0.2,2.4-1.4v-8.3C71.3,63.9,71,63.3,70.5,63.1z"/>
		<path class="st0" d="M50.3,48.6l20.2-11.7c0.5-0.3,0.8-0.8,0.8-1.4v-8.3c0-1.1-1.1-1.8-2.1-1.5c0.1,0.2,0.1,0.3,0.1,0.5v8.3
			c0,0.6-0.3,1.1-0.8,1.4L48.3,47.6c-0.1,0.1-0.7,0.5-0.8,1.4c-0.1,0.9,0.6,1.5,0.7,1.5c0.6,0.4,1.3,0.9,1.9,1.3
			c0-0.1-0.1-0.3,0-0.5c0,0,0,0,0-0.1C49.2,50.6,49.3,49.2,50.3,48.6z"/>
		<path class="st0" d="M71.3,27.3v8.3c0,0.6-0.3,1.1-0.8,1.4L50.3,48.6c-1.1,0.6-1.1,2.2,0,2.8l20.2,11.7c0.5,0.3,0.8,0.8,0.8,1.4
			v8.3c0,1.2-1.3,2-2.4,1.4L29.5,51.4c-1.1-0.6-1.1-2.2,0-2.8l39.4-22.7C70,25.3,71.3,26,71.3,27.3z"/>
	</g>
</g>
</svg>
