<?xml version="1.0" encoding="utf-8"?>
<!-- Generator: Adobe Illustrator 24.2.3, SVG Export Plug-In . SVG Version: 6.00 Build 0)  -->
<svg version="1.1" id="Слой_1" xmlns="http://www.w3.org/2000/svg" xmlns:xlink="http://www.w3.org/1999/xlink" x="0px" y="0px"
	 viewBox="0 0 100 100" style="enable-background:new 0 0 100 100;" xml:space="preserve">
<style type="text/css">
	.st0{fill:#415C8C;}
	.st1{opacity:0.6;fill:#415C8C;enable-background:new    ;}
</style>
<g id="blue">
	<g id="Layer_8">
		<path class="st0" d="M28.7,27.3v8.3c0,0.6,0.3,1.1,0.8,1.4l20.2,11.7c1.1,0.6,1.1,2.2,0,2.8L29.5,63.1c-0.5,0.3-0.8,0.8-0.8,1.4
			v8.3c0,1.2,1.3,2,2.4,1.4l39.4-22.7c1.1-0.6,1.1-2.2,0-2.8L31.1,25.9C30,25.3,28.7,26,28.7,27.3z"/>
		<path class="st1" d="M51.6,49.1c-1-0.6-2-1.1-3-1.7c0.5,0.5,1,1,1.5,1.5c0.8,0.7,0.7,2-0.3,2.6L29.5,63.1
			c-0.5,0.3-0.8,0.8-0.8,1.4v8.3c0,1.1,1.1,1.8,2.1,1.5c-0.1-0.2-0.1-0.3-0.1-0.5v-8.3c0-0.6,0.3-1.1,0.8-1.4l20.2-11.7
			c0.1-0.1,0.7-0.6,0.8-1.4C52.6,50.3,52.2,49.5,51.6,49.1z"/>
		<path class="st1" d="M31.5,37.9c-0.5-0.3-0.8-0.8-0.8-1.4v-8.3c0-1,0.9-1.7,1.8-1.6l-1.4-0.8c-1.1-0.6-2.4,0.2-2.4,1.4v8.3
			c0,0.6,0.3,1.1,0.8,1.4L31.5,37.9C31.5,38,31.5,38,31.5,37.9L31.5,37.9z"/>
		<path class="st0" d="M70.5,48.6L31.1,25.9c-0.2-0.1-0.4-0.2-0.6-0.2l38,21.9c1.1,0.6,1.1,2.2,0,2.8L29.1,73.1
			c-0.1,0.1-0.2,0.1-0.3,0.1c0.3,0.9,1.4,1.4,2.3,0.9l39.4-22.7C71.6,50.8,71.6,49.2,70.5,48.6z"/>
		<path class="st0" d="M28.7,27.3v8.3c0,0.6,0.3,1.1,0.8,1.4l20.2,11.7c1.1,0.6,1.1,2.2,0,2.8L29.5,63.1c-0.5,0.3-0.8,0.8-0.8,1.4
			v8.3c0,1.2,1.3,2,2.4,1.4l39.4-22.7c1.1-0.6,1.1-2.2,0-2.8L31.1,25.9C30,25.3,28.7,26,28.7,27.3z"/>
	</g>
</g>
</svg>
